<?xml version="1.0" encoding="UTF-8"?>
<svg id="b5ff76a9-e2c6-41a6-ab57-b8034f778fa8" xmlns="http://www.w3.org/2000/svg" viewBox="0 0 370.25 47.13">
  <defs>
    <style>
      .cls-1 {
        fill: #fa8219;
      }

      .cls-2 {
        fill: #fff;
      }
    </style>
  </defs>
  <g>
    <path class="cls-2" d="M9.58,31.44v14.74H0V.95h16.7c11.03,0,17.89,5.23,17.89,15.06s-6.87,15.44-17.89,15.44h-7.12ZM9.58,9.01v14.36h7.06c5.42,0,8.44-2.83,8.44-7.31s-3.02-7.06-8.44-7.06h-7.06Z"/>
    <path class="cls-2" d="M41.08,46.18V.95h17.7c11.4,0,18.02,5.29,18.02,14.68,0,6.11-3.78,10.96-10.21,13.1l11.66,17.45h-11.4l-10.21-16h-5.99v16h-9.58ZM50.65,22.3h7.69c5.8,0,8.88-2.27,8.88-6.68s-3.09-6.74-8.88-6.74h-7.69v13.42Z"/>
    <path class="cls-2" d="M81.33,23.5c0-13.54,10.08-23.5,23.12-23.5s23.25,9.96,23.25,23.5-10.14,23.63-23.25,23.63-23.12-10.08-23.12-23.63ZM117.81,23.5c0-8.32-5.04-14.93-13.36-14.93s-13.29,6.62-13.29,14.93,5.04,15.06,13.29,15.06,13.36-6.74,13.36-15.06Z"/>
    <path class="cls-2" d="M154.42,46.18h-10.46L127.7.95h10.33l11.47,34.08L161.22.95h9.58l-16.38,45.24Z"/>
    <path class="cls-2" d="M206.39,46.18h-30.43V.95h29.99v8.32h-20.41v9.51h18.52v8.25h-18.52v10.84h20.85v8.32Z"/>
    <path class="cls-2" d="M222.58,14.62v31.56h-8.76V.95h10.33l19.72,29.99V.95h8.82v45.24h-9.39l-20.73-31.56Z"/>
    <path class="cls-2" d="M272.67,46.18V9.58h-14.24V.95h38.12v8.63h-14.3v36.61h-9.58Z"/>
    <path class="cls-2" d="M325.21,36.48h-17.58l-3.46,9.7h-9.64L311.54.95h10.46l16.88,45.24h-10.27l-3.4-9.7ZM310.34,28.86h12.22l-6.05-17.45-6.17,17.45Z"/>
  </g>
  <polygon class="cls-1" points="361.21 28.45 352.17 37.49 352.17 46.53 370.25 46.53 370.25 28.45 361.21 28.45"/>
</svg>